<svg xmlns="http://www.w3.org/2000/svg" xmlns:xlink="http://www.w3.org/1999/xlink" version="1.1" width="256" height="256" viewBox="0 0 256 256" xml:space="preserve">

<defs>
</defs>
<g style="stroke: none; stroke-width: 0; stroke-dasharray: none; stroke-linecap: butt; stroke-linejoin: miter; stroke-miterlimit: 10; fill: none; fill-rule: nonzero; opacity: 1;" transform="translate(1.4065934065934016 1.4065934065934016) scale(2.81 2.81)" >
	<path d="M 21.222 81.195 c -0.828 0 -1.65 -0.26 -2.353 -0.771 c -1.244 -0.903 -1.855 -2.407 -1.595 -3.922 l 4.183 -24.391 L 3.733 34.83 c -1.101 -1.073 -1.49 -2.648 -1.015 -4.11 c 0.475 -1.462 1.715 -2.508 3.236 -2.729 l 24.49 -3.559 L 41.404 2.235 C 42.085 0.856 43.463 0 45 0 c 0 0 0.001 0 0.001 0 c 1.538 0 2.915 0.857 3.595 2.236 l 10.952 22.19 l 24.497 3.564 c 1.521 0.221 2.763 1.267 3.237 2.729 c 0.475 1.462 0.086 3.037 -1.016 4.11 l -17.72 17.274 l 4.181 24.398 c 0.26 1.516 -0.353 3.019 -1.598 3.923 c -1.243 0.903 -2.861 1.021 -4.222 0.304 L 45.004 69.215 L 23.091 80.73 C 22.5 81.041 21.859 81.195 21.222 81.195 z M 45 65.213 c 0.642 0 1.283 0.154 1.868 0.462 l 21.903 11.515 l -4.17 -24.401 c -0.224 -1.3 0.208 -2.628 1.155 -3.55 l 17.719 -17.272 L 58.979 28.39 c -1.306 -0.19 -2.435 -1.01 -3.019 -2.193 L 45.008 4.005 c 0 0 0 0 0 -0.001 C 45.003 3.995 45 3.991 45 3.991 L 34.039 26.197 c -0.583 1.183 -1.712 2.003 -3.019 2.193 L 6.53 31.949 l 17.715 17.291 c 0.945 0.92 1.377 2.247 1.153 3.549 l -4.183 24.391 l 21.918 -11.505 C 43.718 65.366 44.358 65.213 45 65.213 z" style="stroke: none; stroke-width: 1; stroke-dasharray: none; stroke-linecap: butt; stroke-linejoin: miter; stroke-miterlimit: 10; fill: #3b82f6; fill-rule: nonzero; opacity: 1;" transform=" matrix(1 0 0 1 0 0) " stroke-linecap="round" />
	<path d="M 65.275 20.369 c -0.48 0 -0.963 -0.172 -1.347 -0.522 c -0.816 -0.744 -0.874 -2.009 -0.13 -2.825 l 9.557 -10.477 c 0.744 -0.815 2.009 -0.875 2.825 -0.13 c 0.816 0.744 0.874 2.009 0.13 2.825 l -9.557 10.477 C 66.359 20.149 65.818 20.369 65.275 20.369 z" style="stroke: none; stroke-width: 1; stroke-dasharray: none; stroke-linecap: butt; stroke-linejoin: miter; stroke-miterlimit: 10; fill: #3b82f6; fill-rule: nonzero; opacity: 1;" transform=" matrix(1 0 0 1 0 0) " stroke-linecap="round" />
	<path d="M 24.039 19.618 c -0.542 0 -1.083 -0.22 -1.478 -0.652 L 13.69 9.24 c -0.745 -0.816 -0.687 -2.081 0.13 -2.825 c 0.816 -0.744 2.081 -0.687 2.825 0.13 l 8.871 9.725 c 0.745 0.816 0.687 2.081 -0.13 2.825 C 25.003 19.445 24.521 19.618 24.039 19.618 z" style="stroke: none; stroke-width: 1; stroke-dasharray: none; stroke-linecap: butt; stroke-linejoin: miter; stroke-miterlimit: 10; fill: #3b82f6; fill-rule: nonzero; opacity: 1;" transform=" matrix(1 0 0 1 0 0) " stroke-linecap="round" />
	<path d="M 45 90 c -1.104 0 -2 -0.896 -2 -2 V 77.191 c 0 -1.104 0.896 -2 2 -2 s 2 0.896 2 2 V 88 C 47 89.104 46.104 90 45 90 z" style="stroke: none; stroke-width: 1; stroke-dasharray: none; stroke-linecap: butt; stroke-linejoin: miter; stroke-miterlimit: 10; fill: #3b82f6; fill-rule: nonzero; opacity: 1;" transform=" matrix(1 0 0 1 0 0) " stroke-linecap="round" />
	<path d="M 85.479 63.173 c -0.305 0 -0.614 -0.069 -0.904 -0.217 l -9.513 -4.835 c -0.984 -0.501 -1.377 -1.705 -0.877 -2.689 c 0.502 -0.984 1.706 -1.376 2.689 -0.877 l 9.513 4.835 c 0.984 0.501 1.377 1.705 0.877 2.689 C 86.91 62.773 86.208 63.173 85.479 63.173 z" style="stroke: none; stroke-width: 1; stroke-dasharray: none; stroke-linecap: butt; stroke-linejoin: miter; stroke-miterlimit: 10; fill: #3b82f6; fill-rule: nonzero; opacity: 1;" transform=" matrix(1 0 0 1 0 0) " stroke-linecap="round" />
	<path d="M 5.026 62.266 c -0.738 0 -1.448 -0.41 -1.796 -1.117 c -0.488 -0.991 -0.08 -2.189 0.912 -2.678 l 9.557 -4.702 c 0.99 -0.486 2.19 -0.078 2.677 0.912 c 0.488 0.991 0.08 2.189 -0.912 2.678 l -9.557 4.702 C 5.624 62.2 5.323 62.266 5.026 62.266 z" style="stroke: none; stroke-width: 1; stroke-dasharray: none; stroke-linecap: butt; stroke-linejoin: miter; stroke-miterlimit: 10; fill: #3b82f6; fill-rule: nonzero; opacity: 1;" transform=" matrix(1 0 0 1 0 0) " stroke-linecap="round" />
</g>
</svg>