<svg xmlns="http://www.w3.org/2000/svg" xmlns:xlink="http://www.w3.org/1999/xlink" version="1.1" width="256" height="256" viewBox="0 0 256 256" xml:space="preserve">

<defs>
</defs>
<g style="stroke: none; stroke-width: 0; stroke-dasharray: none; stroke-linecap: butt; stroke-linejoin: miter; stroke-miterlimit: 10; fill: none; fill-rule: nonzero; opacity: 1;" transform="translate(1.4065934065934016 1.4065934065934016) scale(2.81 2.81)" >
	<path d="M 45 47 c -0.512 0 -1.024 -0.195 -1.414 -0.586 c -0.781 -0.781 -0.781 -2.047 0 -2.828 l 16.865 -16.865 c 0.781 -0.781 2.047 -0.781 2.828 0 c 0.781 0.781 0.781 2.047 0 2.828 L 46.414 46.414 C 46.023 46.805 45.512 47 45 47 z" style="stroke: none; stroke-width: 1; stroke-dasharray: none; stroke-linecap: butt; stroke-linejoin: miter; stroke-miterlimit: 10; fill: #3b82f6; fill-rule: nonzero; opacity: 1;" transform=" matrix(1 0 0 1 0 0) " stroke-linecap="round" />
	<path d="M 73.043 31.419 c -0.076 0 -0.152 -0.004 -0.229 -0.013 l -11.178 -1.285 c -0.924 -0.106 -1.652 -0.835 -1.759 -1.758 l -1.284 -11.178 c -0.069 -0.606 0.142 -1.211 0.573 -1.643 l 13.54 -13.541 c 0.542 -0.543 1.35 -0.726 2.072 -0.475 c 0.725 0.253 1.241 0.898 1.329 1.66 l 1.103 9.601 l 9.601 1.104 c 0.763 0.087 1.407 0.604 1.66 1.328 c 0.253 0.725 0.068 1.53 -0.475 2.073 l -13.54 13.541 C 74.08 31.211 73.57 31.419 73.043 31.419 z M 63.671 26.329 l 8.641 0.993 l 9.929 -9.929 l -7.063 -0.812 c -0.924 -0.106 -1.652 -0.835 -1.759 -1.759 l -0.812 -7.063 l -9.929 9.929 L 63.671 26.329 z" style="stroke: none; stroke-width: 1; stroke-dasharray: none; stroke-linecap: butt; stroke-linejoin: miter; stroke-miterlimit: 10; fill: #3b82f6; fill-rule: nonzero; opacity: 1;" transform=" matrix(1 0 0 1 0 0) " stroke-linecap="round" />
	<path d="M 45 73.277 c -15.592 0 -28.278 -12.686 -28.278 -28.277 c 0 -15.592 12.686 -28.278 28.278 -28.278 c 1.11 0 2.257 0.081 3.607 0.254 c 1.096 0.141 1.869 1.143 1.729 2.238 c -0.14 1.096 -1.142 1.864 -2.238 1.729 c -1.178 -0.151 -2.162 -0.222 -3.098 -0.222 c -13.387 0 -24.278 10.891 -24.278 24.278 S 31.613 69.277 45 69.277 S 69.277 58.387 69.277 45 c 0 -0.942 -0.07 -1.927 -0.221 -3.098 c -0.142 -1.096 0.633 -2.098 1.729 -2.239 c 1.071 -0.141 2.097 0.631 2.238 1.728 c 0.171 1.326 0.254 2.506 0.254 3.608 C 73.277 60.592 60.592 73.277 45 73.277 z" style="stroke: none; stroke-width: 1; stroke-dasharray: none; stroke-linecap: butt; stroke-linejoin: miter; stroke-miterlimit: 10; fill: #3b82f6; fill-rule: nonzero; opacity: 1;" transform=" matrix(1 0 0 1 0 0) " stroke-linecap="round" />
	<path d="M 45 56.556 c -6.372 0 -11.556 -5.184 -11.556 -11.556 c 0 -5.744 4.123 -10.543 9.802 -11.411 c 1.094 -0.165 2.112 0.583 2.279 1.675 c 0.167 1.092 -0.583 2.112 -1.675 2.279 c -3.652 0.558 -6.406 3.764 -6.406 7.457 c 0 4.166 3.39 7.556 7.556 7.556 c 3.693 0 6.899 -2.754 7.456 -6.406 c 0.167 -1.092 1.189 -1.838 2.279 -1.675 c 1.092 0.167 1.842 1.187 1.676 2.279 C 55.544 52.433 50.745 56.556 45 56.556 z" style="stroke: none; stroke-width: 1; stroke-dasharray: none; stroke-linecap: butt; stroke-linejoin: miter; stroke-miterlimit: 10; fill: #3b82f6; fill-rule: nonzero; opacity: 1;" transform=" matrix(1 0 0 1 0 0) " stroke-linecap="round" />
	<path d="M 45 90 C 20.187 90 0 69.813 0 45 C 0 20.187 20.187 0 45 0 c 3.803 0 7.604 0.487 11.297 1.449 c 1.068 0.278 1.71 1.37 1.432 2.439 c -0.278 1.068 -1.365 1.71 -2.439 1.432 C 51.925 4.444 48.463 4 45 4 C 22.393 4 4 22.393 4 45 s 18.393 41 41 41 s 41 -18.393 41 -41 c 0 -3.463 -0.444 -6.925 -1.319 -10.29 c -0.278 -1.069 0.363 -2.161 1.432 -2.439 c 1.073 -0.28 2.161 0.363 2.439 1.432 C 89.513 37.396 90 41.197 90 45 C 90 69.813 69.813 90 45 90 z" style="stroke: none; stroke-width: 1; stroke-dasharray: none; stroke-linecap: butt; stroke-linejoin: miter; stroke-miterlimit: 10; fill: #3b82f6; fill-rule: nonzero; opacity: 1;" transform=" matrix(1 0 0 1 0 0) " stroke-linecap="round" />
</g>
</svg>